<mxfile host="app.diagrams.net" modified="2023-06-17T19:58:31.357Z" agent="Mozilla/5.0 (Windows NT 10.0; Win64; x64) AppleWebKit/537.36 (KHTML, like Gecko) Chrome/114.0.0.0 Safari/537.36" version="21.4.0" etag="BdVv4mnn914sGhJlJmgt" type="github">
  <diagram name="Page-1" id="OdrFl3o4O7A02wHZ_E5L">
    <mxGraphModel>
      <root>
        <mxCell id="0" />
        <mxCell id="1" parent="0" />
      </root>
    </mxGraphModel>
  </diagram>
</mxfile>
